<svg xmlns="http://www.w3.org/2000/svg"
  viewPort="0 0 4181 2584"
  width="4181"
  height="2584"
>
  <defs>
    <style>
      svg {
        background: #000000;
        fill: none;
        stroke-width: 0;
      }

      #sky {
        fill: #00CCFF;
      }

      #sea {
        fill: #1111EE;
      }

      #flame {
        fill: #FFDD00;
      }

      #olive-leaf {
        fill: #FFFFFF;
        stroke: #FFFFFF;
        stroke-width: 6;
        stroke-linejoin: round;
        stroke-linecap: round;
      }
    </style>

    <path id="olive-leaf" d="
      M 0 0
      a 377 377 0 0 1 0 -377
      a 377 377 0 0 1 0 377
    " />
    <use id="olive-leaf-o" href="#olive-leaf" transform="translate(0 798.5) rotate(-100)" />
    <use id="olive-leaf-i" href="#olive-leaf" transform="translate(0 798.5) rotate(-55)" />
    <g id="olive-branch">
      <use href="#olive-leaf-o" transform="rotate(7.5)" />
      <use href="#olive-leaf-i" transform="rotate(17.5)" />
      <use href="#olive-leaf-o" transform="rotate(27.5)" />
      <use href="#olive-leaf-i" transform="rotate(37.5)" />
      <use href="#olive-leaf-o" transform="rotate(47.5)" />
      <use href="#olive-leaf-i" transform="rotate(57.5)" />
      <use href="#olive-leaf-o" transform="rotate(67.5)" />
      <use href="#olive-leaf-i" transform="rotate(77.5)" />
      <use href="#olive-leaf-o" transform="rotate(87.5)" />
      <use href="#olive-leaf-i" transform="rotate(97.5)" />
      <use href="#olive-leaf-o" transform="rotate(107.5)" />
      <use href="#olive-leaf-i" transform="rotate(117.5)" />
      <use href="#olive-leaf-o" transform="rotate(127.5)" />
      <use href="#olive-leaf-i" transform="rotate(137.5)" />
      <use href="#olive-leaf-o" transform="rotate(147.5)" />
    </g>

  </defs>

  <polygon id="sky" points="0 0, 0 1292, 4181 1292, 4181 0" />
  <polygon id="sea" points="0 1292, 0 2584, 4181 2584, 4181 1292" />

  <path id="flame" d="
    M 2090.5 1292
    m -493.5 0
    a 493.5 493.5 0 0 0 987 0
    c 0 -250, -250 -150, -150 -450
    c -100 50, -250 100, -200 250
    c -200 -200, 50 -400, -150 -600
    c 0 250, -487 450, -487 800
  " />

  <use href="#olive-branch" transform="translate(2090.5 1292)" />
  <use href="#olive-branch" transform="translate(2090.5 1292) scale(-1 1)" />

</svg>
